<svg width="40" height="40" viewBox="0 0 40 40" fill="none" xmlns="http://www.w3.org/2000/svg">
<circle cx="20" cy="20" r="19" fill="#0394CF"/>
<path d="M20 12.3131C17.7239 12.3131 15.8788 14.0339 15.8788 16.1566C15.8788 18.2792 17.7239 20.0001 20 20.0001C22.2761 20.0001 24.1212 18.2792 24.1212 16.1566C24.1212 14.0339 22.2761 12.3131 20 12.3131ZM13.8182 16.1566C13.8182 12.9725 16.5859 10.3914 20 10.3914C23.4141 10.3914 26.1818 12.9725 26.1818 16.1566C26.1818 19.3406 23.4141 21.9218 20 21.9218C16.5859 21.9218 13.8182 19.3406 13.8182 16.1566ZM15.8788 25.7653C14.1718 25.7653 12.7879 27.0558 12.7879 28.6479C12.7879 29.1786 12.3266 29.6087 11.7576 29.6087C11.1886 29.6087 10.7273 29.1786 10.7273 28.6479C10.7273 25.9945 13.0337 23.8435 15.8788 23.8435H24.1212C26.9663 23.8435 29.2727 25.9945 29.2727 28.6479C29.2727 29.1786 28.8115 29.6087 28.2424 29.6087C27.6734 29.6087 27.2121 29.1786 27.2121 28.6479C27.2121 27.0558 25.8283 25.7653 24.1212 25.7653H15.8788Z" fill="white"/>
<path d="M20 11.8131C17.4812 11.8131 15.3788 13.7255 15.3788 16.1566C15.3788 18.5877 17.4812 20.5001 20 20.5001C22.5188 20.5001 24.6212 18.5877 24.6212 16.1566C24.6212 13.7255 22.5188 11.8131 20 11.8131ZM14.3182 16.1566C14.3182 13.281 16.8286 10.8914 20 10.8914C23.1714 10.8914 25.6818 13.281 25.6818 16.1566C25.6818 19.0322 23.1714 21.4218 20 21.4218C16.8286 21.4218 14.3182 19.0322 14.3182 16.1566ZM15.8788 25.2653C13.929 25.2653 12.2879 26.7474 12.2879 28.6479C12.2879 28.8701 12.0839 29.1087 11.7576 29.1087C11.4313 29.1087 11.2273 28.8701 11.2273 28.6479C11.2273 26.303 13.2764 24.3435 15.8788 24.3435H24.1212C26.7236 24.3435 28.7727 26.303 28.7727 28.6479C28.7727 28.8701 28.5688 29.1087 28.2424 29.1087C27.9161 29.1087 27.7121 28.8701 27.7121 28.6479C27.7121 26.7474 26.0711 25.2653 24.1212 25.2653H15.8788Z" stroke="black" stroke-opacity="0.07"/>
</svg>
